<svg xmlns="http://www.w3.org/2000/svg" width="960" height="834" viewBox="0 0 960 834" font-family="-apple-system,BlinkMacSystemFont,'Segoe UI','Noto Sans',Helvetica,Arial,sans-serif" role="img" aria-label="Technology map: which tools each project uses"><title>Technology map: which tools each project uses</title>
<style>
  .flow { stroke-dasharray: 5 5; animation: flow 1.4s linear infinite; }
  .pulse { animation: pulse 2.4s ease-in-out infinite; transform-box: fill-box; transform-origin: center; }
  @keyframes flow { to { stroke-dashoffset: -20; } }
  @keyframes pulse { 0%,100% { opacity: .35; transform: scale(1); } 50% { opacity: 0; transform: scale(2.1); } }
  @media (prefers-reduced-motion: reduce) { .flow, .pulse { animation: none; } }
</style>
<rect x="0.5" y="0.5" width="959" height="833" rx="14" fill="#ffffff" stroke="#d1d9e0"/><text x="32" y="40" font-size="11" font-weight="700" letter-spacing="1.6" fill="#1a7f37">TECHNOLOGY MAP</text><text x="32" y="66" font-size="21" font-weight="700" fill="#1f2328">What the projects have in common</text><text x="32" y="88" font-size="12.5" fill="#59636e">Each dot is a tool used in a project. Rows with several dots are the shared foundations.</text><text x="262" y="128" font-size="10.5" font-weight="700" text-anchor="middle" fill="#1f2328">Portfolio</text><rect x="246" y="136" width="32" height="3" rx="1.5" fill="#0969da"/><line x1="262" y1="150" x2="262" y2="804" stroke="#d1d9e0" stroke-dasharray="2 4"/><text x="330" y="128" font-size="10.5" font-weight="700" text-anchor="middle" fill="#1f2328">ArtSync</text><rect x="314" y="136" width="32" height="3" rx="1.5" fill="#0969da"/><line x1="330" y1="150" x2="330" y2="804" stroke="#d1d9e0" stroke-dasharray="2 4"/><text x="398" y="128" font-size="10.5" font-weight="700" text-anchor="middle" fill="#1f2328">CV Checker</text><rect x="382" y="136" width="32" height="3" rx="1.5" fill="#8250df"/><line x1="398" y1="150" x2="398" y2="804" stroke="#d1d9e0" stroke-dasharray="2 4"/><text x="466" y="128" font-size="10.5" font-weight="700" text-anchor="middle" fill="#1f2328">CrowdLoop</text><rect x="450" y="136" width="32" height="3" rx="1.5" fill="#8250df"/><line x1="466" y1="150" x2="466" y2="804" stroke="#d1d9e0" stroke-dasharray="2 4"/><text x="534" y="128" font-size="10.5" font-weight="700" text-anchor="middle" fill="#1f2328">Fynn</text><rect x="518" y="136" width="32" height="3" rx="1.5" fill="#8250df"/><line x1="534" y1="150" x2="534" y2="804" stroke="#d1d9e0" stroke-dasharray="2 4"/><text x="602" y="128" font-size="10.5" font-weight="700" text-anchor="middle" fill="#1f2328">Risk Score</text><rect x="586" y="136" width="32" height="3" rx="1.5" fill="#1a7f37"/><line x1="602" y1="150" x2="602" y2="804" stroke="#d1d9e0" stroke-dasharray="2 4"/><text x="670" y="128" font-size="10.5" font-weight="700" text-anchor="middle" fill="#1f2328">Credit</text><rect x="654" y="136" width="32" height="3" rx="1.5" fill="#1a7f37"/><line x1="670" y1="150" x2="670" y2="804" stroke="#d1d9e0" stroke-dasharray="2 4"/><text x="738" y="128" font-size="10.5" font-weight="700" text-anchor="middle" fill="#1f2328">Deal-Finder</text><rect x="722" y="136" width="32" height="3" rx="1.5" fill="#1a7f37"/><line x1="738" y1="150" x2="738" y2="804" stroke="#d1d9e0" stroke-dasharray="2 4"/><text x="806" y="128" font-size="10.5" font-weight="700" text-anchor="middle" fill="#1f2328">Tunescape</text><rect x="790" y="136" width="32" height="3" rx="1.5" fill="#0969da"/><line x1="806" y1="150" x2="806" y2="804" stroke="#d1d9e0" stroke-dasharray="2 4"/><text x="928" y="128" font-size="11" font-weight="700" text-anchor="end" fill="#59636e">USED IN</text><text x="32" y="172" font-size="10" font-weight="700" letter-spacing="1.2" fill="#1a7f37">MACHINE LEARNING</text><rect x="24" y="180" width="912" height="22" rx="6" fill="#f6f8fa"/><text x="36" y="195" font-size="12" fill="#1f2328">Python</text><line x1="534" y1="191" x2="738" y2="191" stroke="#59636e" stroke-opacity=".45" stroke-width="2"/><circle cx="534" cy="191" r="6" fill="#8250df"/><circle cx="602" cy="191" r="6" fill="#1a7f37"/><circle cx="670" cy="191" r="6" fill="#1a7f37"/><circle cx="738" cy="191" r="6" fill="#1a7f37"/><rect x="840" y="187" width="60" height="8" rx="4" fill="#d1d9e0"/><rect x="840" y="187" width="48" height="8" rx="4" fill="#1a7f37"/><text x="924" y="195" font-size="11" font-weight="700" text-anchor="end" fill="#1f2328">4</text><rect x="24" y="204" width="912" height="22" rx="6" fill="#f6f8fa"/><text x="36" y="219" font-size="12" fill="#1f2328">pandas · scikit-learn</text><line x1="534" y1="215" x2="738" y2="215" stroke="#59636e" stroke-opacity=".45" stroke-width="2"/><circle cx="534" cy="215" r="6" fill="#8250df"/><circle cx="602" cy="215" r="6" fill="#1a7f37"/><circle cx="670" cy="215" r="6" fill="#1a7f37"/><circle cx="738" cy="215" r="6" fill="#1a7f37"/><rect x="840" y="211" width="60" height="8" rx="4" fill="#d1d9e0"/><rect x="840" y="211" width="48" height="8" rx="4" fill="#1a7f37"/><text x="924" y="219" font-size="11" font-weight="700" text-anchor="end" fill="#1f2328">4</text><rect x="24" y="228" width="912" height="22" rx="6" fill="#f6f8fa"/><text x="36" y="243" font-size="12" fill="#1f2328">XGBoost</text><line x1="602" y1="239" x2="738" y2="239" stroke="#59636e" stroke-opacity=".45" stroke-width="2"/><circle cx="602" cy="239" r="6" fill="#1a7f37"/><circle cx="670" cy="239" r="6" fill="#1a7f37"/><circle cx="738" cy="239" r="6" fill="#1a7f37"/><rect x="840" y="235" width="60" height="8" rx="4" fill="#d1d9e0"/><rect x="840" y="235" width="36" height="8" rx="4" fill="#1a7f37"/><text x="924" y="243" font-size="11" font-weight="700" text-anchor="end" fill="#1f2328">3</text><rect x="24" y="252" width="912" height="22" rx="6" fill="#f6f8fa"/><text x="36" y="267" font-size="12" fill="#1f2328">LightGBM</text><line x1="534" y1="263" x2="738" y2="263" stroke="#59636e" stroke-opacity=".45" stroke-width="2"/><circle cx="534" cy="263" r="6" fill="#8250df"/><circle cx="670" cy="263" r="6" fill="#1a7f37"/><circle cx="738" cy="263" r="6" fill="#1a7f37"/><rect x="840" y="259" width="60" height="8" rx="4" fill="#d1d9e0"/><rect x="840" y="259" width="36" height="8" rx="4" fill="#1a7f37"/><text x="924" y="267" font-size="11" font-weight="700" text-anchor="end" fill="#1f2328">3</text><rect x="24" y="276" width="912" height="22" rx="6" fill="#f6f8fa"/><text x="36" y="291" font-size="12" fill="#1f2328">CatBoost</text><circle cx="670" cy="287" r="6" fill="#1a7f37"/><rect x="840" y="283" width="60" height="8" rx="4" fill="#d1d9e0"/><rect x="840" y="283" width="12" height="8" rx="4" fill="#1a7f37"/><text x="924" y="291" font-size="11" font-weight="700" text-anchor="end" fill="#1f2328">1</text><rect x="24" y="300" width="912" height="22" rx="6" fill="#f6f8fa"/><text x="36" y="315" font-size="12" fill="#1f2328">SHAP explainability</text><circle cx="602" cy="311" r="6" fill="#1a7f37"/><rect x="840" y="307" width="60" height="8" rx="4" fill="#d1d9e0"/><rect x="840" y="307" width="12" height="8" rx="4" fill="#1a7f37"/><text x="924" y="315" font-size="11" font-weight="700" text-anchor="end" fill="#1f2328">1</text><rect x="24" y="324" width="912" height="22" rx="6" fill="#f6f8fa"/><text x="36" y="339" font-size="12" fill="#1f2328">Recommender algorithms</text><circle cx="806" cy="335" r="6" fill="#0969da"/><rect x="840" y="331" width="60" height="8" rx="4" fill="#d1d9e0"/><rect x="840" y="331" width="12" height="8" rx="4" fill="#1a7f37"/><text x="924" y="339" font-size="11" font-weight="700" text-anchor="end" fill="#1f2328">1</text><text x="32" y="370" font-size="10" font-weight="700" letter-spacing="1.2" fill="#8250df">AI &amp; LLM</text><rect x="24" y="378" width="912" height="22" rx="6" fill="#f6f8fa"/><text x="36" y="393" font-size="12" fill="#1f2328">Claude API · tool use</text><line x1="466" y1="389" x2="534" y2="389" stroke="#59636e" stroke-opacity=".45" stroke-width="2"/><circle cx="466" cy="389" r="6" fill="#8250df"/><circle cx="534" cy="389" r="6" fill="#8250df"/><rect x="840" y="385" width="60" height="8" rx="4" fill="#d1d9e0"/><rect x="840" y="385" width="24" height="8" rx="4" fill="#8250df"/><text x="924" y="393" font-size="11" font-weight="700" text-anchor="end" fill="#1f2328">2</text><rect x="24" y="402" width="912" height="22" rx="6" fill="#f6f8fa"/><text x="36" y="417" font-size="12" fill="#1f2328">LangChain · text-to-SQL</text><circle cx="534" cy="413" r="6" fill="#8250df"/><rect x="840" y="409" width="60" height="8" rx="4" fill="#d1d9e0"/><rect x="840" y="409" width="12" height="8" rx="4" fill="#8250df"/><text x="924" y="417" font-size="11" font-weight="700" text-anchor="end" fill="#1f2328">1</text><rect x="24" y="426" width="912" height="22" rx="6" fill="#f6f8fa"/><text x="36" y="441" font-size="12" fill="#1f2328">Gemini API</text><circle cx="398" cy="437" r="6" fill="#8250df"/><rect x="840" y="433" width="60" height="8" rx="4" fill="#d1d9e0"/><rect x="840" y="433" width="12" height="8" rx="4" fill="#8250df"/><text x="924" y="441" font-size="11" font-weight="700" text-anchor="end" fill="#1f2328">1</text><rect x="24" y="450" width="912" height="22" rx="6" fill="#f6f8fa"/><text x="36" y="465" font-size="12" fill="#1f2328">OpenRouter</text><circle cx="262" cy="461" r="6" fill="#0969da"/><rect x="840" y="457" width="60" height="8" rx="4" fill="#d1d9e0"/><rect x="840" y="457" width="12" height="8" rx="4" fill="#8250df"/><text x="924" y="465" font-size="11" font-weight="700" text-anchor="end" fill="#1f2328">1</text><rect x="24" y="474" width="912" height="22" rx="6" fill="#f6f8fa"/><text x="36" y="489" font-size="12" fill="#1f2328">RAG · embeddings</text><circle cx="466" cy="485" r="6" fill="#8250df"/><rect x="840" y="481" width="60" height="8" rx="4" fill="#d1d9e0"/><rect x="840" y="481" width="12" height="8" rx="4" fill="#8250df"/><text x="924" y="489" font-size="11" font-weight="700" text-anchor="end" fill="#1f2328">1</text><text x="32" y="520" font-size="10" font-weight="700" letter-spacing="1.2" fill="#0969da">WEB &amp; PRODUCT</text><rect x="24" y="528" width="912" height="22" rx="6" fill="#f6f8fa"/><text x="36" y="543" font-size="12" fill="#1f2328">Next.js · React · TypeScript</text><line x1="330" y1="539" x2="806" y2="539" stroke="#59636e" stroke-opacity=".45" stroke-width="2"/><circle cx="330" cy="539" r="6" fill="#0969da"/><circle cx="466" cy="539" r="6" fill="#8250df"/><circle cx="534" cy="539" r="6" fill="#8250df"/><circle cx="806" cy="539" r="6" fill="#0969da"/><rect x="840" y="535" width="60" height="8" rx="4" fill="#d1d9e0"/><rect x="840" y="535" width="48" height="8" rx="4" fill="#0969da"/><text x="924" y="543" font-size="11" font-weight="700" text-anchor="end" fill="#1f2328">4</text><rect x="24" y="552" width="912" height="22" rx="6" fill="#f6f8fa"/><text x="36" y="567" font-size="12" fill="#1f2328">Tailwind CSS</text><line x1="330" y1="563" x2="806" y2="563" stroke="#59636e" stroke-opacity=".45" stroke-width="2"/><circle cx="330" cy="563" r="6" fill="#0969da"/><circle cx="534" cy="563" r="6" fill="#8250df"/><circle cx="806" cy="563" r="6" fill="#0969da"/><rect x="840" y="559" width="60" height="8" rx="4" fill="#d1d9e0"/><rect x="840" y="559" width="36" height="8" rx="4" fill="#0969da"/><text x="924" y="567" font-size="11" font-weight="700" text-anchor="end" fill="#1f2328">3</text><rect x="24" y="576" width="912" height="22" rx="6" fill="#f6f8fa"/><text x="36" y="591" font-size="12" fill="#1f2328">FastAPI</text><circle cx="534" cy="587" r="6" fill="#8250df"/><rect x="840" y="583" width="60" height="8" rx="4" fill="#d1d9e0"/><rect x="840" y="583" width="12" height="8" rx="4" fill="#0969da"/><text x="924" y="591" font-size="11" font-weight="700" text-anchor="end" fill="#1f2328">1</text><rect x="24" y="600" width="912" height="22" rx="6" fill="#f6f8fa"/><text x="36" y="615" font-size="12" fill="#1f2328">Node.js · Express</text><line x1="262" y1="611" x2="398" y2="611" stroke="#59636e" stroke-opacity=".45" stroke-width="2"/><circle cx="262" cy="611" r="6" fill="#0969da"/><circle cx="398" cy="611" r="6" fill="#8250df"/><rect x="840" y="607" width="60" height="8" rx="4" fill="#d1d9e0"/><rect x="840" y="607" width="24" height="8" rx="4" fill="#0969da"/><text x="924" y="615" font-size="11" font-weight="700" text-anchor="end" fill="#1f2328">2</text><rect x="24" y="624" width="912" height="22" rx="6" fill="#f6f8fa"/><text x="36" y="639" font-size="12" fill="#1f2328">deck.gl</text><circle cx="806" cy="635" r="6" fill="#0969da"/><rect x="840" y="631" width="60" height="8" rx="4" fill="#d1d9e0"/><rect x="840" y="631" width="12" height="8" rx="4" fill="#0969da"/><text x="924" y="639" font-size="11" font-weight="700" text-anchor="end" fill="#1f2328">1</text><rect x="24" y="648" width="912" height="22" rx="6" fill="#f6f8fa"/><text x="36" y="663" font-size="12" fill="#1f2328">Web Audio API</text><circle cx="466" cy="659" r="6" fill="#8250df"/><rect x="840" y="655" width="60" height="8" rx="4" fill="#d1d9e0"/><rect x="840" y="655" width="12" height="8" rx="4" fill="#0969da"/><text x="924" y="663" font-size="11" font-weight="700" text-anchor="end" fill="#1f2328">1</text><rect x="24" y="672" width="912" height="22" rx="6" fill="#f6f8fa"/><text x="36" y="687" font-size="12" fill="#1f2328">Vercel</text><line x1="262" y1="683" x2="806" y2="683" stroke="#59636e" stroke-opacity=".45" stroke-width="2"/><circle cx="262" cy="683" r="6" fill="#0969da"/><circle cx="330" cy="683" r="6" fill="#0969da"/><circle cx="398" cy="683" r="6" fill="#8250df"/><circle cx="466" cy="683" r="6" fill="#8250df"/><circle cx="806" cy="683" r="6" fill="#0969da"/><rect x="840" y="679" width="60" height="8" rx="4" fill="#d1d9e0"/><rect x="840" y="679" width="60" height="8" rx="4" fill="#0969da"/><text x="924" y="687" font-size="11" font-weight="700" text-anchor="end" fill="#1f2328">5</text><text x="32" y="718" font-size="10" font-weight="700" letter-spacing="1.2" fill="#0969da">DATA</text><rect x="24" y="726" width="912" height="22" rx="6" fill="#f6f8fa"/><text x="36" y="741" font-size="12" fill="#1f2328">Web scraping</text><circle cx="738" cy="737" r="6" fill="#1a7f37"/><rect x="840" y="733" width="60" height="8" rx="4" fill="#d1d9e0"/><rect x="840" y="733" width="12" height="8" rx="4" fill="#0969da"/><text x="924" y="741" font-size="11" font-weight="700" text-anchor="end" fill="#1f2328">1</text><rect x="24" y="750" width="912" height="22" rx="6" fill="#f6f8fa"/><text x="36" y="765" font-size="12" fill="#1f2328">PDF parsing</text><circle cx="398" cy="761" r="6" fill="#8250df"/><rect x="840" y="757" width="60" height="8" rx="4" fill="#d1d9e0"/><rect x="840" y="757" width="12" height="8" rx="4" fill="#0969da"/><text x="924" y="765" font-size="11" font-weight="700" text-anchor="end" fill="#1f2328">1</text><rect x="24" y="774" width="912" height="22" rx="6" fill="#f6f8fa"/><text x="36" y="789" font-size="12" fill="#1f2328">Bank CSV ingestion</text><circle cx="534" cy="785" r="6" fill="#8250df"/><rect x="840" y="781" width="60" height="8" rx="4" fill="#d1d9e0"/><rect x="840" y="781" width="12" height="8" rx="4" fill="#0969da"/><text x="924" y="789" font-size="11" font-weight="700" text-anchor="end" fill="#1f2328">1</text></svg>